Coordinates
version=1
nRows=11
nColumns=36
inDegrees=yes

Units are S.I. units (second, meters, Newtons, ...)
If the header above contains a line with 'inDegrees', this indicates whether rotational values are in degrees (yes) or radians (no).

endheader
time	pelvis_tilt	pelvis_list	pelvis_rotation	pelvis_tx	pelvis_ty	pelvis_tz	hip_flexion_r	hip_adduction_r	hip_rotation_r	knee_angle_r	knee_angle_r_beta	ankle_angle_r	subtalar_angle_r	mtp_angle_r	hip_flexion_l	hip_adduction_l	hip_rotation_l	knee_angle_l	knee_angle_l_beta	ankle_angle_l	subtalar_angle_l	mtp_angle_l	lumbar_extension	lumbar_bending	lumbar_rotation	arm_flex_r	arm_add_r	arm_rot_r	elbow_flex_r	pro_sup_r	arm_flex_l	arm_add_l	arm_rot_l	elbow_flex_l	pro_sup_l
     14.56666670	     -5.72292943	      8.01604876	     -1.86099564	      0.26775083	      0.93272416	      0.20356389	     21.58950666	      2.27584395	     -2.23767935	     25.99793404	      0.45374955	     10.27057074	    -24.38064162	     -7.49999987	     42.30810227	      2.51515303	      5.92220923	      6.54697073	      0.11426620	     -1.71733668	     -8.69527604	     -7.49999987	     -8.53550152	     -1.92167187	     -0.36723690	     55.95058608	      8.98026026	     62.73876403	    125.57577414	     97.57377300	     41.91018607	     15.06118703	     63.01100128	    129.47741372	     91.29016822
     14.58333330	     -5.85370131	      7.82674554	     -1.73561777	      0.26722347	      0.92748354	      0.20296846	     22.32777843	      2.34326960	     -2.47786632	     26.90964356	      0.46966188	     10.43341906	    -24.98662700	     -7.49999987	     42.39795733	      2.29146648	      5.94860672	      6.01856684	      0.10504381	     -1.80878793	     -8.19061188	     -7.49999987	     -8.99955628	     -1.63831433	     -0.21444514	     56.03970920	      9.04686031	     63.19101454	    126.09629141	     97.45893499	     42.19641229	     15.34082690	     64.74451181	    130.14939390	     91.25733282
     14.60000000	     -6.02935558	      7.80592363	     -1.52133888	      0.26638008	      0.92317634	      0.20223337	     22.74860909	      2.25414270	     -2.75048327	     28.04172772	      0.48942048	      9.21090305	    -25.59144935	     -7.49999987	     42.59229359	      2.40364210	      5.99325605	      5.38523606	      0.09399010	     -2.25758823	     -7.82174759	     -7.49999987	     -9.45993611	     -1.76094314	     -0.05146276	     55.93477660	      8.73529034	     63.06684329	    126.99521783	     96.87920676	     42.73398559	     15.62818535	     65.68003433	    130.07482744	     90.95710251
     14.61666670	     -5.97210472	      7.63315552	     -1.59539759	      0.26642275	      0.92130292	      0.20264994	     22.78265194	      2.43453629	     -2.86724327	     28.94620507	      0.50520658	      8.77735452	    -26.10833575	     -7.49999987	     42.42735623	      2.06039289	      5.56931506	      4.47920002	      0.07817679	     -2.60342259	     -7.24671469	     -7.49999987	     -9.89815758	     -1.69325520	      0.16217210	     56.08130966	      8.63365465	     62.89439689	    127.50480247	     96.24824041	     43.10257948	     15.86284007	     66.38281346	    130.01879890	     90.44869820
     14.63333330	     -6.42598069	      7.59952853	     -1.45717897	      0.26307024	      0.91659435	      0.20196255	     23.90360997	      2.42306427	     -2.90790147	     30.33412709	      0.52943039	      9.00989894	    -26.60591914	     -7.49999987	     43.09125845	      2.08995645	      5.73999805	      4.45673045	      0.07778462	     -2.55961872	     -7.39133466	     -7.49999987	    -10.02707633	     -1.71593861	      0.19211969	     56.07506340	      8.51691715	     62.90213736	    128.08438312	     96.25495296	     43.44172943	     15.97353193	     66.90181592	    130.09109221	     90.66770363
     14.65000000	     -6.17921521	      7.72622144	     -1.61665184	      0.26461940	      0.91683497	      0.20137986	     23.47247404	      2.24131546	     -2.98297410	     31.34049067	      0.54699475	      7.76563926	    -27.04729637	     -7.49999987	     42.89295072	      2.11389998	      5.55422982	      3.94379270	      0.06883217	     -2.63576100	     -7.13225069	     -7.49999987	    -10.61802355	     -1.84489575	      0.34770523	     56.16001037	      8.31006710	     62.44483244	    128.32365269	     98.66581404	     43.94038765	     16.08866451	     67.09655989	    129.70400080	     93.31374479
     14.66666670	     -5.80451604	      7.60411421	     -1.79120624	      0.26354011	      0.91439464	      0.20116661	     23.48980834	      2.29772374	     -3.19121118	     32.88377046	      0.57393007	      5.60798161	    -28.14956959	     -7.49999987	     42.55278039	      1.90671507	      5.24885442	      3.60871676	      0.06298399	     -2.36610646	     -6.75420656	     -7.49999987	    -11.30758264	     -1.58110224	      0.60299354	     56.51648945	      8.13591087	     62.50354889	    128.32731517	     97.85494163	     44.49035445	     16.06181150	     67.23767250	    129.73839133	     92.48774775
     14.68333330	     -5.22922797	      7.56538786	     -1.85539106	      0.26269639	      0.91131541	      0.20100241	     23.34308563	      2.24247164	     -3.35807940	     34.31629536	      0.59893234	      2.68094808	    -29.76132174	     -7.49999987	     42.02854096	      1.89334387	      4.80054887	      3.07584040	      0.05368354	     -1.74841915	     -5.98387828	     -7.49999987	    -12.14431571	     -1.53919165	      0.63822612	     56.73758039	      7.92801372	     62.45761819	    128.39997242	     95.89064064	     45.23494110	     15.89419605	     66.77405243	    129.10446392	     90.53004302
     14.70000000	     -5.01440208	      7.63007992	     -1.83771477	      0.26115167	      0.90540069	      0.20052323	     23.95921349	      2.17133798	     -3.28535697	     36.07332655	      0.62959832	      2.17288806	    -30.46601498	     -7.49999987	     42.00870699	      2.00926287	      4.48507757	      2.94720212	      0.05143838	     -1.13041601	     -6.24318213	     -7.49999987	    -12.75645833	     -1.53680048	      0.40324869	     57.07578947	      7.90460053	     62.26689867	    128.09611413	     96.04597242	     45.72675367	     15.86885226	     66.51753934	    128.82501855	     90.63778976
     14.71666670	     -5.13383166	      7.68998768	     -1.50300467	      0.26172033	      0.90022577	      0.19922318	     25.17494598	      2.15603862	     -2.97709560	     37.48668225	      0.65426603	      3.38155234	    -31.78361348	     -7.49999987	     42.27708465	      2.32324881	      4.37269774	      2.88233000	      0.05030615	     -0.64924423	     -6.37278288	     -7.49999987	    -13.31448747	     -1.62517279	     -0.02477821	     57.17767976	      8.07395092	     62.27205626	    128.20155913	     96.22362661	     46.03809382	     15.72830878	     66.19929166	    128.56318392	     90.73204840
     14.73333330	     -5.22551170	      7.72136386	     -1.43902032	      0.26089810	      0.89711456	      0.19810558	     26.03489510	      2.21607223	     -2.67496796	     38.81323905	      0.67741881	      3.62188468	    -32.27193353	     -7.49999987	     42.59186206	      2.49078096	      4.35301084	      2.96899527	      0.05181874	     -0.05441468	     -6.44455354	     -7.49999987	    -13.60339365	     -1.74982636	     -0.36541419	     57.26066336	      8.11935365	     62.19156239	    128.46953230	     98.42034360	     46.16655143	     15.73282008	     65.96812769	    128.22416412	     92.10130614
